<?xml version="1.0" standalone="no"?><!DOCTYPE svg PUBLIC "-//W3C//DTD SVG 1.1//EN" "http://www.w3.org/Graphics/SVG/1.1/DTD/svg11.dtd"><svg t="1741672274344" class="icon" viewBox="0 0 1024 1024" version="1.1" xmlns="http://www.w3.org/2000/svg" p-id="910" xmlns:xlink="http://www.w3.org/1999/xlink" width="200" height="200"><path d="M291.459459 781.261261a20.18018 20.18018 0 0 1-20.18018-19.603603c-6.918919-172.972973 129.153153-293.477477 187.963964-336.720721l23.63964-17.297297h-33.441442a707.459459 707.459459 0 0 0-189.117117 39.207207h-17.297297a61.693694 61.693694 0 0 1-46.702703-19.027027 121.081081 121.081081 0 0 1-16.144144-100.324325 20.18018 20.18018 0 0 1 3.45946-6.918918 1429.333333 1429.333333 0 0 1 190.846846-162.594595l18.450451-32.864865A20.18018 20.18018 0 0 1 408.504505 115.315315l72.648648-14.414414V0l23.063063 3.459459a183.351351 183.351351 0 0 1 138.378379 89.36937v4.036036h4.612612a178.738739 178.738739 0 0 1 93.981982 54.198198l6.342343 6.342342 6.918918-5.189189a20.756757 20.756757 0 0 1 12.684685-4.036036 20.18018 20.18018 0 0 1 12.108108 36.324325l-47.279279 35.171171a20.18018 20.18018 0 0 1-25.369369-31.711712l7.495495-6.918919L708.900901 172.972973a132.036036 132.036036 0 0 0-77.837838-38.630631h-14.414414L613.765766 122.810811A132.612613 132.612613 0 0 0 535.351351 53.045045L522.09009 47.855856v70.342342a20.756757 20.756757 0 0 1-19.027027 20.18018H498.45045l-73.801801 13.261262-15.567568 28.252252a19.603604 19.603604 0 0 1-5.765766 6.342342 1637.477477 1637.477477 0 0 0-182.774774 153.36937V345.945946c-2.882883 16.144144-5.189189 46.126126 5.189189 57.657658a21.90991 21.90991 0 0 0 16.72072 5.765765h9.801802a726.486486 726.486486 0 0 1 194.306307-39.783783 101.477477 101.477477 0 0 1 61.117117 14.414414 44.972973 44.972973 0 0 1 13.261261 16.144144v5.765766a48.432432 48.432432 0 0 1 0 17.297297 20.18018 20.18018 0 0 1-9.801802 16.720721c-7.495495 4.612613-189.117117 115.315315-201.801802 292.900901v10.378378h345.945946v-8.648648A172.972973 172.972973 0 0 1 729.081081 602.522523c69.189189-43.81982 87.63964-89.369369 77.837838-194.306307v-10.954955h-14.990991a20.18018 20.18018 0 0 1-5.765766-39.783784l57.657658-17.873873h5.765766a20.18018 20.18018 0 0 1 5.765765 39.783783l-10.954955 4.612613v8.072072c11.531532 108.972973 0 184.504505-95.135135 244.468469a150.486486 150.486486 0 0 0-57.657657 123.387387 20.18018 20.18018 0 0 1-20.180181 21.333333z" p-id="911"></path><path d="M152.504505 1024l8.072072-26.522523a280.216216 280.216216 0 0 1 87.639639-142.414414 20.18018 20.18018 0 0 1 9.801802 0h457.225225a20.18018 20.18018 0 0 1 9.801802 0 280.216216 280.216216 0 0 1 87.63964 142.414414l8.072072 26.522523z m108.972972-128.576577a207.567568 207.567568 0 0 0-47.279279 73.801802l-5.765766 13.837838h556.396397l-5.765766-13.837838a211.603604 211.603604 0 0 0-47.279279-73.801802H264.36036z m504.504505-586.954955a20.756757 20.756757 0 0 1-18.45045-11.531531 20.18018 20.18018 0 0 1 9.801801-27.099099l53.621622-25.36937a20.18018 20.18018 0 0 1 8.648649 0 20.756757 20.756757 0 0 1 18.45045 11.531532 20.18018 20.18018 0 0 1 0 15.567568 20.18018 20.18018 0 0 1-10.378378 11.531531l-53.621622 25.369369a20.18018 20.18018 0 0 1-8.072072 0z" p-id="912"></path></svg>