<svg width="120" height="24" viewBox="0 0 120 24" xmlns="http://www.w3.org/2000/svg" >
<path d="M1.17228 0C5.92983 0 9.79178 3.92369 9.79178 8.75441V19.0273C9.79178 21.7716 7.5984 24 4.89732 24C2.19338 24.0029 0 21.7744 0 19.0302V1.19102C0 0.533205 0.524814 0 1.17228 0Z" />
<path d="M19.6948 0C20.3423 0 20.8671 0.533205 20.8671 1.19102V19.0273C20.8671 21.7716 18.6737 24 15.9726 24C13.2715 24 11.0781 21.7716 11.0781 19.0273V8.75441C11.0753 3.92369 14.9372 0 19.6948 0Z" />
<path d="M23.3257 0C28.0804 0 31.9424 3.92369 31.9424 8.75441V19.0273C31.9424 21.7716 29.749 24 27.0479 24C24.3468 24 22.1534 21.7716 22.1534 19.0273V1.19102C22.1506 0.533205 22.6782 0 23.3257 0Z" />
<path d="M50.8813 22.1541V14.1415C50.8813 13.7706 50.8072 13.5011 50.6589 13.3359C50.5106 13.1708 50.2653 13.0867 49.9258 13.0867C49.4381 13.0867 48.9418 13.2258 48.4427 13.5011C47.9692 13.7358 47.5157 14.0662 47.0793 14.4922V22.1541H44.7205V14.1415C44.7205 13.9068 44.7005 13.7272 44.6606 13.6054C44.6207 13.4808 44.5665 13.3852 44.498 13.3157C44.4296 13.2606 44.3411 13.2084 44.2327 13.1621C44.1244 13.1128 43.9618 13.0896 43.745 13.0896C43.5425 13.0896 43.3172 13.1244 43.0747 13.1939C42.8294 13.2635 42.5585 13.3736 42.2618 13.5243C42.0051 13.6489 41.7627 13.7851 41.5402 13.9387C41.3177 14.0894 41.1095 14.2488 40.9213 14.4139V19.9083H42.5071V22.1599H38.5625V13.3215H36.814V11.0698H40.9213V11.7103C41.3548 11.435 41.8169 11.2147 42.3046 11.0495C42.7924 10.8844 43.3001 10.8032 43.8306 10.8032C44.3868 10.8032 44.8973 10.9075 45.3651 11.1133C45.8329 11.319 46.2208 11.6639 46.5345 12.1449C46.8739 11.8841 47.2533 11.6436 47.6726 11.4234C48.0662 11.2321 48.4541 11.0785 48.842 10.9684C49.227 10.8583 49.6035 10.8032 49.9715 10.8032C50.445 10.8032 50.8785 10.8728 51.2721 11.009C51.6657 11.1481 52.0165 11.3683 52.3303 11.6697C52.9407 12.2753 53.2459 13.0606 53.2459 14.0227V19.9083H54.749V22.1599H50.8871L50.8813 22.1541Z" />
<path d="M58.0975 17.5059C58.2316 18.1521 58.5311 18.7316 58.9931 19.2417C59.6434 19.9169 60.462 20.253 61.4518 20.253C61.6286 20.253 61.8454 20.2211 62.1021 20.1603C62.3588 20.0994 62.6212 20.0183 62.8836 19.9227C63.1488 19.827 63.4056 19.7314 63.6565 19.6329C63.9075 19.5372 64.1129 19.4532 64.2755 19.3866L64.8859 21.473C64.3439 21.6788 63.8819 21.841 63.5025 21.957C63.1232 22.0729 62.7296 22.183 62.3245 22.2873C61.9167 22.3916 61.5716 22.4409 61.2892 22.4409C59.6777 22.4409 58.3342 21.8845 57.2647 20.7688C56.2065 19.6532 55.6788 18.2709 55.6788 16.6191C55.6788 14.9673 56.2008 13.5503 57.2447 12.4462C58.3029 11.345 59.6292 10.7944 61.2293 10.7944C62.8294 10.7944 64.1015 11.3392 65.0912 12.4259C65.5932 12.991 65.9754 13.6691 66.2407 14.4602C66.506 15.2513 66.6714 16.2685 66.7398 17.5059H58.1004H58.0975ZM63.2601 13.8285C62.7324 13.2924 62.0279 13.0229 61.1466 13.0229C60.2652 13.0229 59.4923 13.3532 58.9104 14.0139C58.5995 14.3733 58.3685 14.7848 58.2202 15.2542H64.1158C63.9389 14.7036 63.6537 14.2284 63.2629 13.8285H63.2601Z" />
<path d="M80.5191 22.1541V14.1415C80.5191 13.7706 80.4449 13.5011 80.2966 13.3359C80.1483 13.1708 79.903 13.0867 79.5636 13.0867C79.0759 13.0867 78.5796 13.2258 78.0804 13.5011C77.6069 13.7358 77.1534 14.0662 76.717 14.4922V22.1541H74.3582V14.1415C74.3582 13.9068 74.3383 13.7272 74.2983 13.6054C74.2584 13.4808 74.2042 13.3852 74.1358 13.3157C74.0673 13.2606 73.9789 13.2084 73.8705 13.1621C73.7621 13.1128 73.5995 13.0896 73.3828 13.0896C73.1802 13.0896 72.9549 13.1244 72.7125 13.1939C72.4672 13.2635 72.1962 13.3736 71.8996 13.5243C71.6429 13.6489 71.4004 13.7851 71.178 13.9387C70.9555 14.0894 70.7473 14.2488 70.559 14.4139V19.9083H72.1449V22.1599H68.2002V13.3215H66.4518V11.0698H70.559V11.7103C70.9926 11.435 71.4546 11.2147 71.9424 11.0495C72.4301 10.8844 72.9378 10.8032 73.4683 10.8032C74.0245 10.8032 74.5351 10.9075 75.0028 11.1133C75.4706 11.319 75.8585 11.6639 76.1723 12.1449C76.5117 11.8841 76.891 11.6436 77.3103 11.4234C77.7039 11.2321 78.0918 11.0785 78.4797 10.9684C78.8648 10.8583 79.2413 10.8032 79.6092 10.8032C80.0827 10.8032 80.5162 10.8728 80.9099 11.009C81.3035 11.1481 81.6543 11.3683 81.968 11.6697C82.5784 12.2753 82.8836 13.0606 82.8836 14.0227V19.9083H84.3867V22.1599H80.5248L80.5191 22.1541Z" />
<path d="M87.7353 17.5059C87.8694 18.1521 88.1689 18.7316 88.6309 19.2417C89.2812 19.9169 90.0998 20.253 91.0896 20.253C91.2664 20.253 91.4832 20.2211 91.7399 20.1603C91.9966 20.0994 92.259 20.0183 92.5214 19.9227C92.7867 19.827 93.0434 19.7314 93.2944 19.6329C93.5454 19.5372 93.7507 19.4532 93.9133 19.3866L94.5237 21.473C93.9818 21.6788 93.5197 21.841 93.1403 21.957C92.761 22.0729 92.3674 22.183 91.9624 22.2873C91.5545 22.3916 91.2094 22.4409 90.927 22.4409C89.3155 22.4409 87.9721 21.8845 86.9025 20.7688C85.8443 19.6532 85.3166 18.2709 85.3166 16.6191C85.3166 14.9673 85.8386 13.5503 86.8825 12.4462C87.9407 11.345 89.267 10.7944 90.8671 10.7944C92.4672 10.7944 93.7393 11.3392 94.7291 12.4259C95.231 12.991 95.6133 13.6691 95.8785 14.4602C96.1438 15.2513 96.3092 16.2685 96.3777 17.5059H87.7382H87.7353ZM92.8979 13.8285C92.3702 13.2924 91.6657 13.0229 90.7844 13.0229C89.903 13.0229 89.1301 13.3532 88.5482 14.0139C88.2373 14.3733 88.0063 14.7848 87.858 15.2542H93.7536C93.5767 14.7036 93.2915 14.2284 92.9008 13.8285H92.8979Z" />
<path d="M107.005 20.6473C105.975 21.7484 104.635 22.299 102.981 22.299C102.248 22.299 101.523 22.1281 100.804 21.7832C100.656 21.7137 100.516 21.6354 100.388 21.5456C100.26 21.4558 100.126 21.3572 99.9915 21.2471V22.157H97.6326V9.05876H95.8842V6.80713H99.9915V11.9073C100.248 11.6871 100.513 11.5074 100.784 11.3712C101.569 10.9858 102.336 10.7917 103.08 10.7917C104.652 10.7917 105.961 11.3278 107.002 12.4029C108.032 13.4635 108.548 14.8052 108.548 16.4309C108.548 18.1522 108.032 19.5577 107.002 20.6444L107.005 20.6473ZM105.297 13.9561C104.726 13.3244 103.996 13.0056 103.1 13.0056C102.205 13.0056 101.5 13.3302 100.904 13.9764C100.28 14.6371 99.9686 15.4833 99.9686 16.5178C99.9686 17.0974 100.046 17.6016 100.203 18.0363C100.359 18.471 100.579 18.839 100.864 19.1404C101.446 19.775 102.179 20.0909 103.06 20.0909C103.942 20.0909 104.726 19.7663 105.297 19.1201C105.879 18.4449 106.169 17.564 106.169 16.4773C106.169 15.4572 105.879 14.6197 105.297 13.959V13.9561Z" />
<path d="M110.28 22.1541L110.24 21.2239V13.3128H108.551V11.0611H112.596V19.8996H114.241V22.1512H110.277L110.28 22.1541ZM112.171 9.14275C111.86 9.43254 111.512 9.57743 111.135 9.57743C110.759 9.57743 110.411 9.43254 110.1 9.14275C109.815 8.82689 109.672 8.47625 109.672 8.09084C109.672 7.66485 109.815 7.30552 110.1 7.01573C110.411 6.72595 110.756 6.58105 111.135 6.58105C111.515 6.58105 111.86 6.72595 112.171 7.01573C112.456 7.3316 112.598 7.68514 112.598 8.06765C112.598 8.49364 112.456 8.85297 112.171 9.14275Z" />
<path d="M118.063 22.38C117.684 22.38 117.342 22.3278 117.037 22.2264C116.731 22.1221 116.463 21.9482 116.235 21.699C116.004 21.4643 115.844 21.1919 115.759 20.8847C115.67 20.5746 115.628 20.2414 115.628 19.8821V13.3155H113.919V11.0639H115.628V8.8963L117.986 8.83545V11.0668H120V13.3184H117.986V19.6792C117.986 19.8994 118.006 20.0385 118.046 20.0936H118.149L120 19.7835V22.0554L118.069 22.3858L118.063 22.38Z" />
</svg>
